Coordinates
version=1
nRows=13
nColumns=40
inDegrees=yes

Units are S.I. units (second, meters, Newtons, ...)
Angles are in degrees.

endheader
time	pelvis_tilt	pelvis_list	pelvis_rotation	pelvis_tx	pelvis_ty	pelvis_tz	hip_flexion_r	hip_adduction_r	hip_rotation_r	knee_angle_r	knee_angle_r_beta	ankle_angle_r	subtalar_angle_r	mtp_angle_r	hip_flexion_l	hip_adduction_l	hip_rotation_l	knee_angle_l	knee_angle_l_beta	ankle_angle_l	subtalar_angle_l	mtp_angle_l	lumbar_extension	lumbar_bending	lumbar_rotation	arm_flex_r	arm_add_r	arm_rot_r	elbow_flex_r	pro_sup_r	wrist_flex_r	wrist_dev_r	arm_flex_l	arm_add_l	arm_rot_l	elbow_flex_l	pro_sup_l	wrist_flex_l	wrist_dev_l
     27.70000000	     -4.64913974	     -6.94047052	     -1.41872131	      0.76362313	      0.91477001	      0.48438725	     16.72029196	      8.50275642	     -5.31931464	     26.16510504	     26.16510504	     15.54026632	     -8.20060292	      0.63241808	     21.94106084	    -20.88129200	     -2.30649703	     53.75968079	     53.75968079	     11.51008596	    -19.27805510	     15.03656156	    -12.17696408	      6.00960188	     -1.67832319	     -1.74333154	    -17.31916680	     -3.62064869	     41.41452219	     46.03856232	      0.00000000	      0.00000000	     22.28218471	    -15.10485094	     -5.55142552	     50.73501954	     46.14716978	      0.00000000	      0.00000000
     27.72078571	     -4.28404672	     -7.02901613	     -0.86592831	      0.76301468	      0.91246538	      0.48662210	     16.85492079	      8.83565085	     -5.03542388	     27.53035302	     27.53035302	     16.11676809	     -9.84876160	      0.63245800	     24.34159958	    -20.91896109	     -0.93116279	     57.32596000	     57.32596000	     11.46550939	    -19.44803915	     16.72697822	    -12.53165394	      6.00916069	     -1.67121685	      1.54502831	    -17.44867379	     -3.97249052	     43.44859533	     45.99239526	      0.00000000	      0.00000000	     19.12965129	    -14.22992564	     -4.78477681	     48.33341985	     46.05615156	      0.00000000	      0.00000000
     27.74157143	     -3.97085514	     -7.09826392	     -0.30570061	      0.76239621	      0.91007030	      0.48876449	     16.98367748	      9.13973972	     -4.86120484	     28.79666598	     28.79666598	     16.72985084	    -11.32374943	      0.64918947	     26.72817189	    -20.78679637	      0.43991510	     60.51681699	     60.51681699	     11.57819255	    -19.54186252	     18.68826002	    -12.78889818	      5.99078319	     -1.67378634	      4.96961388	    -17.49300444	     -4.13807971	     45.49736877	     45.93919617	      0.00000000	      0.00000000	     16.00929582	    -13.20682507	     -3.87972327	     45.50120918	     45.94405119	      0.00000000	      0.00000000
     27.76235714	     -3.56995217	     -7.15509927	      0.21310945	      0.76171639	      0.90801265	      0.49074589	     16.95682363	      9.42014714	     -4.72472958	     29.96487056	     29.96487056	     17.46423692	    -12.50917337	      1.21727228	     28.89939970	    -20.44671522	      1.80262069	     63.23526672	     63.23526672	     12.65961737	    -19.59870929	     22.81826563	    -13.18815046	      5.98313643	     -1.24750808	      8.37924384	    -17.89294684	     -3.67964434	     47.49747718	     45.84978646	      0.00000000	      0.00000000	     13.76357010	    -12.11570256	     -2.21224355	     41.02689942	     45.81457825	      0.00000000	      0.00000000
     27.78314286	     -3.28100364	     -7.19036178	      0.72480894	      0.76096655	      0.90607532	      0.49254049	     16.98366847	      9.63826906	     -4.70469221	     30.97677686	     30.97677686	     17.98348018	    -13.49858224	      1.29091904	     30.85217751	    -20.06603644	      2.85921780	     65.03199568	     65.03199568	     12.75643642	    -19.64437868	     23.27852964	    -13.51064538	      5.96199683	     -1.26388282	     12.18709267	    -17.85418487	     -3.86721853	     49.56728538	     45.80074495	      0.00000000	      0.00000000	     10.68214456	    -11.21576787	     -1.41361791	     38.23857266	     45.70335827	      0.00000000	      0.00000000
     27.80392857	     -3.04035545	     -7.22090525	      1.19374095	      0.76010133	      0.90461452	      0.49405310	     16.95061159	      9.81884657	     -4.76284598	     31.78750345	     31.78750345	     18.62210087	    -14.16825861	      1.99701632	     32.63311511	    -19.56262296	      3.76576893	     66.08802370	     66.08802370	     13.37415314	    -19.66277753	     24.48590817	    -13.76052165	      5.94688271	     -0.90335596	     16.06185869	    -18.11081637	     -3.24249381	     51.06962156	     45.73043948	      0.00000000	      0.00000000	      8.46780930	    -10.25928339	      0.09888062	     34.00279075	     45.56052387	      0.00000000	      0.00000000
     27.82471429	     -2.90378006	     -7.18729440	      1.64807388	      0.75916745	      0.90359812	      0.49522965	     16.87861033	      9.88084838	     -4.88907743	     32.29977524	     32.29977524	     18.96981793	    -14.67897557	      2.07947379	     34.20114418	    -18.91411832	      4.45419634	     66.24201250	     66.24201250	     13.82282446	    -19.67382528	     24.50191454	    -13.95547810	      5.87554563	     -0.75565642	     19.89905532	    -17.99515921	     -3.39827982	     53.16231922	     45.68078377	      0.00000000	      0.00000000	      5.52784724	     -9.47431907	      0.68407814	     31.87501717	     45.45551287	      0.00000000	      0.00000000
     27.84550000	     -2.84388712	     -7.09834054	      2.05730837	      0.75815193	      0.90321248	      0.49608284	     16.73421613	      9.83930170	     -5.06598021	     32.52636917	     32.52636917	     19.24279670	    -14.92683003	      2.29159185	     35.53227395	    -18.14951483	      4.93622139	     65.53949088	     65.53949088	     14.38699204	    -19.67200162	     24.57844896	    -14.08003570	      5.74289383	     -0.52291856	     23.79329873	    -17.91689776	     -3.17642300	     55.12928863	     45.62009047	      0.00000000	      0.00000000	      2.81340703	     -8.77625310	      1.40319573	     29.66343434	     45.33190493	      0.00000000	      0.00000000
     27.86628571	     -2.88512315	     -6.95520242	      2.45149578	      0.75706342	      0.90337846	      0.49656483	     16.56182443	      9.68671379	     -5.30478912	     32.50059823	     32.50059823	     19.41386579	    -14.99050292	      2.44673309	     36.64466494	    -17.26418007	      5.27593258	     64.00060784	     64.00060784	     14.83315121	    -19.65563177	     24.41607153	    -14.11580744	      5.57804322	     -0.19473538	     27.60561182	    -17.86807717	     -2.90092350	     57.15518811	     45.55626552	      0.00000000	      0.00000000	      0.17267633	     -8.18207983	      2.00355761	     27.91877195	     45.21247546	      0.00000000	      0.00000000
     27.88707143	     -3.00055082	     -6.74923709	      2.82563286	      0.75593769	      0.90411761	      0.49675246	     16.32821628	      9.42625201	     -5.58755953	     32.22716607	     32.22716607	     19.48987975	    -14.85355338	      2.58978516	     37.48708983	    -16.26932745	      5.51076651	     61.67420527	     61.67420527	     15.01751198	    -19.62364502	     24.02575558	    -14.08586449	      5.35217039	      0.14696984	     31.41525281	    -17.82306392	     -2.38559097	     59.28938371	     45.48021789	      0.00000000	      0.00000000	     -2.42143502	     -7.72331364	      2.60058237	     26.52600776	     45.08460840	      0.00000000	      0.00000000
     27.90785714	     -3.18717810	     -6.48005656	      3.19829371	      0.75479166	      0.90529242	      0.49660185	     16.04623758	      9.05715585	     -5.91457882	     31.73148837	     31.73148837	     19.46815980	    -14.55879087	      2.69969039	     38.06852688	    -15.16602741	      5.70394319	     58.66031188	     58.66031188	     14.80832143	    -19.57459933	     23.40599179	    -14.01044977	      5.07632145	      0.47554963	     35.17677445	    -17.81673611	     -1.63368114	     61.52217428	     45.39306418	      0.00000000	      0.00000000	     -4.98574352	     -7.40191655	      3.19132378	     25.56574871	     44.94844912	      0.00000000	      0.00000000
     27.92864286	     -3.47594460	     -6.21261092	      3.58207619	      0.75366974	      0.90660565	      0.49616777	     15.79780176	      8.63743221	     -6.34455885	     31.11093678	     31.11093678	     19.38474957	    -14.11620244	      2.63908626	     38.42901135	    -14.08530159	      5.85658946	     55.01846549	     55.01846549	     13.52444326	    -19.49387043	     20.91981462	    -13.79398209	      4.80716324	      0.66057769	     39.00643127	    -18.52569386	      1.59875830	     63.96744765	     45.21589802	      0.00000000	      0.00000000	     -8.05775944	     -7.52192005	      5.10352028	     26.34857055	     44.57934668	      0.00000000	      0.00000000
     27.94942857	     -3.72493325	     -5.90946480	      3.98747503	      0.75265409	      0.90824597	      0.49543436	     15.39431604	      8.16325893	     -6.83109118	     30.29809338	     30.29809338	     19.16930322	    -13.63215401	      2.45220565	     38.46352681	    -12.94933128	      6.07287402	     50.98318877	     50.98318877	     11.89021844	    -19.36660007	     18.69342441	    -13.64577354	      4.50460962	      0.89986130	     42.77977032	    -18.68343824	      3.11674080	     66.14377252	     45.12378713	      0.00000000	      0.00000000	    -11.06304755	     -7.89013677	      7.54896248	     27.56522170	     44.17159749	      0.00000000	      0.00000000
